HIERARCHY
ROOT Hips
{
	OFFSET 0.00 0.00 0.00
	CHANNELS 6 Xposition Yposition Zposition Xrotation Yrotation Zrotation
	JOINT LeftUpLeg
	{
		OFFSET 3.78105 0.00000 0.00000
		CHANNELS 3 Xrotation Yrotation Zrotation
		JOINT LeftLeg
		{
			OFFSET 0.00000 -16.26276 0.00000
			CHANNELS 3 Xrotation Yrotation Zrotation
			JOINT LeftFoot
			{
				OFFSET 0.00000 -15.82304 0.00000
				CHANNELS 3 Xrotation Yrotation Zrotation
				JOINT LeftToeBase
				{
					OFFSET 0.00000 -1.62057 6.04805
					CHANNELS 3 Xrotation Yrotation Zrotation
					End Site
					{
						OFFSET 0.00000 0.00000 2.95275
					}
				}
			}
		}
	}
	JOINT RightUpLeg
	{
		OFFSET -3.78105 0.00000 0.00000
		CHANNELS 3 Xrotation Yrotation Zrotation
		JOINT RightLeg
		{
			OFFSET 0.00000 -16.26276 0.00000
			CHANNELS 3 Xrotation Yrotation Zrotation
			JOINT RightFoot
			{
				OFFSET 0.00000 -15.82304 0.00000
				CHANNELS 3 Xrotation Yrotation Zrotation
				JOINT RightToeBase
				{
					OFFSET 0.00000 -1.62057 6.04805
					CHANNELS 3 Xrotation Yrotation Zrotation
					End Site
					{
						OFFSET 0.00000 0.00000 2.95275
					}
				}
			}
		}
	}
	JOINT Spine
	{
		OFFSET 0.00000 0.03937 0.00000
		CHANNELS 3 Xrotation Yrotation Zrotation
		JOINT Spine1
		{
			OFFSET 0.00000 7.25908 0.00000
			CHANNELS 3 Xrotation Yrotation Zrotation
			JOINT Neck
			{
				OFFSET 0.00000 10.99958 0.00000
				CHANNELS 3 Xrotation Yrotation Zrotation
				JOINT Head
				{
					OFFSET 0.00000 6.12581 0.00000
					CHANNELS 3 Xrotation Yrotation Zrotation
					End Site
					{
						OFFSET 0.00000 4.52755 0.00000
					}
				}
			}
			JOINT LeftShoulder
			{
				OFFSET 0.00000 10.99958 0.00000
				CHANNELS 3 Xrotation Yrotation Zrotation
				JOINT LeftArm
				{
					OFFSET 7.23802 -0.00003 0.00000
					CHANNELS 3 Xrotation Yrotation Zrotation
					JOINT LeftForeArm
					{
						OFFSET 10.05612 -0.00004 0.00000
						CHANNELS 3 Xrotation Yrotation Zrotation
						JOINT LeftHand
						{
							OFFSET 9.51368 -0.00003 0.00000
							CHANNELS 3 Xrotation Yrotation Zrotation
							JOINT LeftHandThumb
							{
								OFFSET 0.00000 0.00000 0.00000
								CHANNELS 3 Xrotation Yrotation Zrotation
								End Site
								{
									OFFSET 0.00000 0.00000 3.93700
								}
							}
							JOINT L_Wrist_End
							{
								OFFSET 3.93700 -0.00001 0.00000
								CHANNELS 3 Xrotation Yrotation Zrotation
							}
						}
					}
				}
			}
			JOINT RightShoulder
			{
				OFFSET 0.00000 10.99958 0.00000
				CHANNELS 3 Xrotation Yrotation Zrotation
				JOINT RightArm
				{
					OFFSET -7.23802 -0.00003 0.00000
					CHANNELS 3 Xrotation Yrotation Zrotation
					JOINT RightForeArm
					{
						OFFSET -10.05612 -0.00004 0.00000
						CHANNELS 3 Xrotation Yrotation Zrotation
						JOINT RightHand
						{
							OFFSET -9.51368 -0.00003 0.00000
							CHANNELS 3 Xrotation Yrotation Zrotation
							JOINT RightHandThumb
							{
								OFFSET 0.00000 0.00000 0.00000
								CHANNELS 3 Xrotation Yrotation Zrotation
								End Site
								{
									OFFSET 0.00000 0.00000 3.93700
								}
							}
							JOINT R_Wrist_End
							{
								OFFSET -5.39369 -0.00002 0.00000
								CHANNELS 3 Xrotation Yrotation Zrotation
							}
						}
					}
				}
			}
		}
	}
}
MOTION
Frames: 19
Frame Time: 0.066664
 -53.3827 33.1119 -22.6043 10.9486 -5.7238 0.0897 -33.1312 13.6371 1.1145 3.2810 -0.0000 0.0000 -2.0334 17.4865 -29.2720 6.7930 -0.0000 0.0000 3.2364 -9.1760 1.7216 11.3076 -0.0000 0.0000 -20.3152 3.7630 12.0470 3.2211 0.0000 0.0000 -16.6082 4.8209 0.8920 8.0371 -4.0493 1.0549 13.4487 5.6580 -5.4815 -10.2077 -8.8981 0.9983 11.0280 6.9056 -2.9814 -1.8649 -24.0671 -75.8991 -0.0001 -19.5323 -0.0000 -29.9105 -1.2424 -0.2627 -0.0000 -0.0000 0.0000 -0.0000 -0.0000 0.0000 -7.1350 2.9462 -2.6952 -2.0186 25.1798 74.0572 -0.0001 27.3426 0.0000 -33.8639 -1.2053 -7.6050 -0.0000 -0.0000 0.0000 -0.0000 -0.0000 0.0000
 -53.3516 32.8405 -19.8464 11.0911 -6.0362 -0.1698 -33.7522 12.4927 0.3386 10.2940 -0.0000 0.0000 -2.9976 18.5487 -26.3230 6.9163 0.0000 0.0000 4.5887 -8.8313 0.4558 17.0970 -0.0000 0.0000 -19.2717 5.5247 13.0613 -3.5599 0.0000 0.0000 -16.7411 5.0425 0.9053 8.4145 -3.8849 0.6904 12.8748 5.9823 -5.3924 -10.4467 -8.6357 0.7166 11.0663 6.9522 -3.1114 -1.4870 -23.6849 -75.9228 -0.0001 -18.0961 -0.0000 -29.6651 -0.5546 -0.4010 -0.0000 -0.0000 0.0000 -0.0000 -0.0000 0.0000 -6.6485 2.8921 -2.6454 -2.1535 24.4521 73.4090 -0.0001 28.1649 0.0000 -33.6461 -0.9315 -7.9138 -0.0000 0.0000 -0.0000 -0.0000 0.0000 -0.0000
 -53.0697 32.9706 -16.7226 11.3493 -6.3178 2.2775 -30.5808 8.9449 -3.0547 12.3218 -0.0000 0.0000 0.3963 20.5764 -17.3681 8.3915 -0.0000 0.0000 1.5563 -9.4563 -4.6747 29.4062 -0.0000 0.0000 -11.5320 7.7985 14.6006 -18.4382 0.0000 0.0000 -17.4549 5.4718 -0.2932 8.6231 -3.4615 -0.9182 12.7360 6.3732 -5.7573 -9.7744 -8.7801 0.7294 10.9932 7.2672 -3.9269 -0.4873 -24.0914 -74.7658 -0.0001 -17.1755 -0.0000 -29.2990 -0.2115 -0.4798 -0.0000 -0.0000 0.0000 -0.0000 -0.0000 0.0000 -6.0266 2.7649 -2.1765 -0.1695 24.2510 73.8106 -0.0001 25.2329 0.0000 -34.3197 -0.2082 -8.0875 -0.0000 0.0000 -0.0000 -0.0000 0.0000 -0.0000
 -52.7117 33.2871 -13.7894 11.0942 -5.5362 4.3319 -26.1817 8.5200 -6.5427 14.5747 -0.0000 0.0000 -3.6866 20.6531 -13.6638 13.3844 -0.0000 0.0000 -8.2126 -9.6231 -10.1362 50.4850 -0.0000 0.0000 1.0283 5.6254 14.6798 -4.5294 -0.0000 -0.0000 -17.0503 5.0296 -1.2790 8.1005 -3.9385 -2.2315 12.8545 6.7197 -6.3177 -8.6267 -8.6466 0.0303 10.7859 6.6567 -3.6232 -0.9038 -23.6537 -74.8062 -0.0001 -16.2148 -0.0000 -29.5443 0.0173 -0.5816 -0.0000 0.0000 -0.0000 -0.0000 0.0000 -0.0000 -6.2781 3.3990 -3.5184 1.7163 23.4850 77.6834 -0.0001 18.9127 0.0000 -33.6878 -2.5777 -7.2821 -0.0000 0.0000 -0.0000 -0.0000 0.0000 -0.0000
 -52.5054 33.5660 -11.2368 10.5567 -6.1862 5.0567 -19.8003 10.4776 -8.0548 12.9559 -0.0000 0.0000 -7.2330 19.0174 -12.5730 13.6094 -0.0000 0.0000 -18.7964 -4.3333 -10.9323 67.9955 -0.0000 0.0000 1.0304 -4.3209 14.7885 12.5516 -0.0000 0.0000 -16.5736 4.2892 -1.5565 8.5075 -4.6930 -2.4665 13.1314 7.5513 -6.6737 -8.2581 -7.2324 -1.1119 9.9467 6.1735 -3.7641 -1.8002 -24.2118 -73.5242 -0.0001 -16.2879 -0.0000 -30.1252 -0.7423 -0.1285 -0.0000 0.0000 -0.0000 -0.0000 0.0000 -0.0000 -6.7205 3.6548 -3.3953 3.8186 25.4927 79.3456 -0.0001 15.0383 0.0000 -32.1238 -4.5955 -7.1002 -0.0000 0.0000 -0.0000 -0.0000 0.0000 -0.0000
 -52.4071 33.8042 -8.8056 10.1974 -5.4260 4.0944 -14.3524 7.4168 -8.4274 10.5804 -0.0000 0.0000 -9.6483 20.3031 -12.6239 13.4997 -0.0000 -0.0000 -27.9703 -1.7566 -8.9311 73.2949 -0.0000 0.0000 -5.8888 -7.4314 11.4650 10.4184 0.0000 0.0000 -16.1503 2.9522 -1.3346 8.2618 -5.9742 -1.6057 14.2429 7.6726 -6.5382 -7.5465 -5.5528 -1.8463 9.2943 5.4868 -3.0146 -3.8812 -26.0696 -72.7474 -0.0001 -16.6670 -0.0000 -29.5518 -0.8665 0.1671 -0.0000 -0.0000 0.0000 -0.0000 -0.0000 0.0000 -4.7077 1.6457 -2.9776 5.2649 25.6830 79.5033 -0.0001 16.3742 0.0000 -31.8741 -4.3793 -7.2590 -0.0000 0.0000 -0.0000 -0.0000 0.0000 -0.0000
 -52.3432 33.8514 -6.4110 10.0662 -4.2714 3.0005 -8.8193 6.7982 -8.1844 8.0356 -0.0000 0.0000 -11.8196 18.8201 -13.0573 12.8513 0.0000 0.0000 -34.7233 -0.8205 -6.7588 66.3798 -0.0000 0.0000 -10.5303 -5.6548 10.1374 7.9365 -0.0000 0.0000 -15.9315 1.5394 -1.2089 8.2015 -7.2458 -0.3579 15.1130 7.7968 -6.2995 -7.2986 -4.1548 -2.0677 8.6161 4.9885 -2.1239 -6.4881 -25.6367 -72.3433 -0.0001 -19.1672 -0.0000 -30.2328 -1.6296 0.2843 -0.0000 0.0000 -0.0000 -0.0000 0.0000 -0.0000 -2.7280 -0.2420 -2.7278 7.3854 23.8838 79.4075 -0.0001 19.3859 0.0000 -33.6915 -3.4935 -6.5190 -0.0000 0.0000 -0.0000 -0.0000 0.0000 -0.0000
 -52.2760 33.6640 -4.0386 10.2076 -3.1123 2.4972 -4.5052 5.5450 -8.3413 7.1327 -0.0000 0.0000 -14.7154 18.6208 -13.1057 12.3622 -0.0000 0.0000 -37.7614 -2.7123 -6.1777 48.7005 -0.0000 0.0000 -10.4958 -4.2616 10.3511 7.1231 0.0000 -0.0000 -15.6785 0.5311 -1.3655 8.2321 -8.0466 0.8085 15.5202 7.7398 -5.9889 -7.6682 -3.5418 -2.0434 8.4120 4.4515 -1.8108 -9.0364 -25.7912 -71.2778 -0.0001 -22.8871 -0.0000 -31.4878 -3.3836 0.4229 -0.0000 0.0000 -0.0000 -0.0000 0.0000 -0.0000 -1.4412 -1.6149 -2.5080 9.4119 22.7083 79.4216 -0.0001 19.9983 0.0000 -33.5054 -3.1688 -6.7874 -0.0000 0.0000 -0.0000 -0.0000 0.0000 -0.0000
 -52.2323 33.2844 -1.6333 11.5238 -2.6660 3.2303 -2.1012 4.8920 -9.3931 8.2224 -0.0000 0.0000 -17.8330 18.8550 -13.0326 11.0676 0.0000 0.0000 -37.4908 -8.0104 -6.2650 21.8259 -0.0000 0.0000 -6.9713 0.4703 13.2143 8.5811 -0.0000 0.0000 -15.9042 0.2215 -1.8648 7.5848 -8.1880 1.2667 14.7455 7.8210 -5.7200 -6.8059 -3.8058 -1.6756 7.5535 4.3651 -1.1221 -10.6375 -25.7752 -71.1376 -0.0001 -26.4883 -0.0000 -30.8922 -3.8918 0.4339 -0.0000 -0.0000 0.0000 -0.0000 -0.0000 0.0000 -0.7419 -2.2149 -2.5420 10.7462 21.6026 80.1691 -0.0001 17.5012 0.0000 -33.3609 -3.7322 -6.9393 -0.0000 0.0000 -0.0000 -0.0000 0.0000 -0.0000
 -52.3169 32.8432 1.0299 12.4999 -2.1343 4.3710 1.1478 6.6038 -10.3815 10.0636 -0.0000 0.0000 -19.1228 17.1641 -15.3367 7.5318 0.0000 0.0000 -36.0492 -15.9048 -5.4585 3.0725 -0.0000 0.0000 -6.5749 9.2776 20.7455 7.6404 -0.0000 -0.0000 -16.2904 0.0303 -2.7150 7.0137 -8.1684 1.5582 14.2458 7.7401 -5.4381 -6.5078 -4.0454 -1.5792 7.5756 4.6681 -0.7380 -11.5449 -25.9030 -71.3758 -0.0001 -29.3570 -0.0000 -31.4122 -4.4063 0.5457 -0.0000 0.0000 -0.0000 -0.0000 0.0000 -0.0000 -0.5806 -2.7237 -2.4161 12.0159 20.0464 80.6069 -0.0001 14.5197 0.0000 -32.7867 -5.5260 -7.3654 -0.0000 0.0000 -0.0000 -0.0000 0.0000 -0.0000
 -52.5730 32.5950 3.9966 12.4985 -1.9299 3.7190 3.5259 7.3404 -8.5948 15.4627 -0.0000 0.0000 -17.7318 15.2194 -19.3027 -0.4303 0.0000 0.0000 -36.2842 -11.9944 -3.7168 13.4066 -0.0000 0.0000 -7.4576 1.6338 14.2092 4.1104 -0.0000 -0.0000 -16.4277 -0.4067 -2.3173 6.8094 -8.5638 2.5423 14.2035 7.9865 -5.5199 -6.6644 -3.9508 -1.8790 8.2696 5.1104 -1.3189 -10.6722 -25.1932 -71.5682 -0.0001 -30.8441 -0.0000 -31.1551 -4.8173 0.3666 -0.0000 -0.0000 0.0000 -0.0000 -0.0000 0.0000 -0.3845 -3.0748 -2.2783 12.7347 18.8361 80.2990 -0.0000 12.3153 0.0000 -32.3870 -6.1174 -7.8369 -0.0000 -0.0000 0.0000 -0.0000 -0.0000 0.0000
 -53.0575 32.7684 7.2011 12.6484 -2.1781 1.0672 1.6562 9.7914 -3.6069 27.1532 -0.0000 0.0000 -9.4144 12.3222 -22.5248 -18.4413 0.0000 -0.0000 -34.1479 -3.4518 0.0610 18.1014 -0.0000 0.0000 -2.7768 -2.6909 14.2963 11.1985 -0.0000 -0.0000 -16.6915 -0.4503 -0.8769 6.0164 -8.6706 4.3316 13.9042 7.9999 -5.2606 -5.5476 -3.9812 -2.0591 8.5685 5.4250 -1.6629 -8.6119 -25.6635 -73.1370 -0.0001 -27.6387 -0.0000 -31.0796 -4.6377 0.1763 -0.0000 0.0000 -0.0000 -0.0000 0.0000 -0.0000 -0.1355 -3.5611 -1.9001 13.3888 17.5712 79.5195 -0.0000 11.3269 0.0000 -32.3947 -5.2578 -7.5546 -0.0000 -0.0000 0.0000 -0.0000 -0.0000 0.0000
 -53.5530 33.0870 10.2537 11.6498 -1.6021 -0.7263 -6.6460 10.5005 1.5560 47.7917 -0.0000 0.0000 4.8584 12.4879 -21.9184 -10.3276 0.0000 -0.0000 -29.3779 -4.3408 2.1875 21.9435 -0.0000 0.0000 -9.0534 -2.9225 10.8047 9.6993 -0.0000 0.0000 -16.5261 -0.3505 -0.2094 6.1908 -8.5929 5.1429 13.8367 7.6386 -4.7155 -5.4324 -4.1055 -1.7504 8.5623 4.8609 -0.7104 -7.4358 -26.1504 -75.8589 -0.0001 -22.0840 -0.0000 -30.0255 -2.1884 -0.3403 -0.0000 -0.0000 0.0000 -0.0000 -0.0000 0.0000 -0.7488 -2.9697 -2.1203 12.7373 17.6047 79.7909 -0.0000 10.8491 0.0000 -32.5767 -4.9709 -7.1972 -0.0000 -0.0000 0.0000 -0.0000 -0.0000 0.0000
 -53.8750 33.3446 12.8539 10.6656 -0.8804 -1.1068 -17.3870 7.5379 3.1632 65.1952 -0.0000 0.0000 14.1900 20.6702 -24.7042 13.9050 0.0000 0.0000 -23.2521 -6.5885 2.4907 21.5338 -0.0000 0.0000 -13.2617 -1.2944 9.4947 9.7284 -0.0000 0.0000 -15.6934 0.6856 -0.0229 6.2073 -7.5806 4.8497 13.6485 7.2004 -4.7923 -5.4293 -5.4370 -0.4537 8.4563 4.7218 -0.8593 -7.0406 -28.5404 -76.4122 -0.0001 -18.2306 -0.0000 -28.2994 -0.5949 -0.5348 -0.0000 0.0000 -0.0000 -0.0000 0.0000 -0.0000 -1.4308 -2.4524 -2.0733 11.2278 18.2239 79.2503 -0.0001 13.3944 0.0000 -33.0261 -4.4054 -7.4333 -0.0000 -0.0000 0.0000 -0.0000 -0.0000 0.0000
 -54.0776 33.6114 15.3990 9.3302 -1.5729 -0.3345 -25.4870 6.2243 2.5509 71.5265 -0.0000 0.0000 3.5333 24.0856 -20.1151 12.8901 0.0000 0.0000 -15.9584 -5.4584 2.4936 18.5176 -0.0000 0.0000 -15.5352 -1.2407 8.3338 9.1179 -0.0000 0.0000 -15.5371 2.0166 0.0775 7.1879 -6.3975 3.6307 14.3742 7.1382 -5.3549 -5.6878 -5.8684 0.0349 9.3208 5.6357 -1.7692 -6.2631 -25.4555 -75.9305 -0.0001 -19.8435 -0.0000 -29.1126 -1.3962 0.3188 -0.0000 0.0000 -0.0000 -0.0000 0.0000 -0.0000 -2.4045 -0.9448 -2.4587 8.7658 20.7105 78.2847 -0.0001 16.1682 0.0000 -33.3209 -3.7027 -7.4270 -0.0000 -0.0000 0.0000 -0.0000 -0.0000 0.0000
 -54.2345 33.7282 17.7843 8.9059 -2.2414 0.5879 -32.5113 6.0979 1.5508 66.5224 -0.0000 0.0000 -4.8751 29.2064 -17.7334 9.6139 0.0000 -0.0000 -9.2120 -6.1814 1.8624 14.1728 -0.0000 0.0000 -16.8629 0.5681 8.1832 8.7045 -0.0000 0.0000 -15.4624 3.2029 -0.0275 7.5237 -5.3586 2.3412 14.6078 7.2258 -5.8475 -5.3075 -6.2848 0.3737 9.6894 6.2741 -2.3652 -4.4178 -23.3588 -75.0723 -0.0001 -22.3442 -0.0000 -30.7835 -2.3046 -0.3091 -0.0000 0.0000 -0.0000 -0.0000 0.0000 -0.0000 -4.0623 -0.1146 -3.1457 5.9792 21.5682 77.2856 -0.0001 19.5029 0.0000 -33.6002 -3.0611 -7.2111 -0.0000 0.0000 -0.0000 -0.0000 0.0000 -0.0000
 -54.3640 33.5976 20.1149 8.9121 -2.9344 0.9773 -36.2149 8.1348 1.7394 50.2977 -0.0000 0.0000 -6.9675 31.7410 -17.6405 7.4423 0.0000 -0.0000 -3.5272 -7.0220 1.6253 11.0195 -0.0000 0.0000 -18.4749 2.1297 8.4035 8.6322 -0.0000 0.0000 -15.7654 4.0106 0.1512 8.2946 -4.7703 1.1722 14.6391 7.2993 -6.1128 -5.8966 -6.4036 0.5595 10.0967 6.7362 -2.7776 -2.7561 -22.7993 -74.1079 -0.0001 -24.1971 -0.0000 -29.9385 -2.3268 -0.3969 -0.0000 0.0000 -0.0000 -0.0000 0.0000 -0.0000 -5.0646 0.9286 -3.3419 2.5967 22.2522 75.7690 -0.0001 22.5003 0.0000 -34.2974 -1.9083 -7.4087 -0.0000 0.0000 -0.0000 -0.0000 0.0000 -0.0000
 -54.4981 33.2247 22.4450 9.7738 -3.8353 0.1505 -36.3970 12.7433 2.7824 24.8096 -0.0000 0.0000 -3.5250 26.7940 -21.0505 7.5034 0.0000 0.0000 0.2527 -6.3377 2.5252 10.1172 -0.0000 0.0000 -20.3657 2.3898 8.9246 6.7307 -0.0000 -0.0000 -15.9656 4.5182 0.7135 7.9567 -4.4237 0.8288 14.5052 7.4381 -6.1022 -6.1753 -6.1680 0.5056 11.0133 7.1932 -2.9701 -2.3021 -22.2686 -73.9800 -0.0001 -23.7375 -0.0000 -30.3179 -2.3474 -0.5105 -0.0000 -0.0000 0.0000 -0.0000 -0.0000 0.0000 -6.0785 1.8870 -3.3313 0.1897 22.7829 74.3582 -0.0001 24.7141 0.0000 -33.6001 -1.7560 -7.6996 -0.0000 0.0000 -0.0000 -0.0000 0.0000 -0.0000
 -54.4926 32.8227 24.9842 10.4497 -4.6366 -0.7481 -33.5418 14.8142 2.1679 3.7581 0.0000 -0.0000 -1.9904 14.7307 -28.4065 7.0176 0.0000 0.0000 3.4717 -7.2051 2.8154 11.4364 -0.0000 0.0000 -21.4625 3.9137 11.0601 3.7771 -0.0000 0.0000 -16.3302 4.7486 1.2764 7.9860 -4.3235 0.6741 14.0386 7.8084 -6.0861 -6.4129 -5.8512 0.2251 11.1264 7.5362 -3.1983 -1.4180 -21.2008 -74.2362 -0.0001 -22.0182 -0.0000 -30.1369 -1.8396 -0.1965 -0.0000 0.0000 -0.0000 -0.0000 0.0000 -0.0000 -6.2360 2.3668 -3.2886 -1.4667 22.8337 73.5688 -0.0001 26.3827 0.0000 -33.6911 -0.7605 -7.8270 -0.0000 -0.0000 0.0000 -0.0000 -0.0000 0.0000
